<?xml version="1.0" encoding="UTF-8"?>
<svg width="1920" height="1080" xmlns="http://www.w3.org/2000/svg">
  <rect width="100%" height="100%" fill="#0a0a1a"/>
  
  <!-- Streamlit风格界面 -->
  <rect x="200" y="100" width="1520" height="880" rx="10" fill="#1e1e2e"/>
  
  <!-- 侧边栏 -->
  <rect x="200" y="100" width="200" height="880" rx="10" fill="#262636"/>
  <text x="300" y="150" font-family="Arial" font-size="24" fill="white" text-anchor="middle">quant_project</text>
  
  <!-- 菜单项 -->
  <rect x="220" y="200" width="160" height="50" rx="5" fill="#3b82f6"/>
  <text x="300" y="232" font-family="Arial" font-size="16" fill="white" text-anchor="middle">📈 选股</text>
  
  <rect x="220" y="270" width="160" height="50" rx="5" fill="#374151"/>
  <text x="300" y="302" font-family="Arial" font-size="16" fill="white" text-anchor="middle">📊 回测</text>
  
  <rect x="220" y="340" width="160" height="50" rx="5" fill="#374151"/>
  <text x="300" y="372" font-family="Arial" font-size="16" fill="white" text-anchor="middle">🤖 ML预测</text>
  
  <!-- 主内容区 -->
  <rect x="430" y="120" width="1270" height="840" fill="#1e1e2e"/>
  
  <!-- 标题 -->
  <text x="565" y="170" font-family="Arial" font-size="32" fill="white" font-weight="bold">📈 智能选股</text>
  
  <!-- 输入框 -->
  <rect x="460" y="200" width="300" height="50" rx="5" fill="#374151"/>
  <text x="610" y="232" font-family="monospace" font-size="18" fill="#9ca3af">600519</text>
  
  <rect x="780" y="200" width="150" height="50" rx="5" fill="#3b82f6"/>
  <text x="855" y="232" font-family="Arial" font-size="16" fill="white" text-anchor="middle">🔍 开始选股</text>
  
  <!-- 结果卡片 -->
  <rect x="460" y="280" width="400" height="150" rx="10" fill="#262636"/>
  <text x="660" y="320" font-family="Arial" font-size="20" fill="white" text-anchor="middle">600519 - 贵州茅台</text>
  
  <text x="500" y="360" font-family="Arial" font-size="24" fill="#4ade80">🟢 强力买入</text>
  <text x="500" y="400" font-family="Arial" font-size="16" fill="#9ca3af">MA20角度: 5.23° | RSI: 45.2</text>
  
  <!-- K线图占位 -->
  <rect x="890" y="280" width="790" height="400" rx="10" fill="#262636"/>
  <text x="1285" y="500" font-family="Arial" font-size="24" fill="#4b5563">[K线图区域]</text>
  
  <!-- 底部结果表格 -->
  <rect x="460" y="720" width="1220" height="200" rx="10" fill="#262636"/>
  <text x="560" y="760" font-family="Arial" font-size="18" fill="white">选股结果</text>
  
  <rect x="480" y="800" width="1180" height="80" rx="5" fill="#374151"/>
  <text x="550" y="845" font-family="Arial" font-size="14" fill="white">代码</text>
  <text x="650" y="845" font-family="Arial" font-size="14" fill="white">名称</text>
  <text x="750" y="845" font-family="Arial" font-size="14" fill="white">评分</text>
  <text x="850" y="845" font-family="Arial" font-size="14" fill="white">MA20</text>
  <text x="950" y="845" font-family="Arial" font-size="14" fill="white">RSI</text>
  <text x="1050" y="845" font-family="Arial" font-size="14" fill="white">信号</text>
  
  <line x1="480" y1="870" x2="1660" y2="870" stroke="#374151" stroke-width="1"/>
  
  <text x="550" y="900" font-family="monospace" font-size="14" fill="#60a5fa">600519</text>
  <text x="650" y="900" font-family="Arial" font-size="14" fill="white">贵州茅台</text>
  <text x="750" y="900" font-family="Arial" font-size="14" fill="#4ade80">85.6</text>
  <text x="850" y="900" font-family="Arial" font-size="14" fill="white">5.23°</text>
  <text x="950" y="900" font-family="Arial" font-size="14" fill="white">45.2</text>
  <text x="1050" y="900" font-family="Arial" font-size="14" fill="#4ade80">🟢 买入</text>
</svg>
